<svg width="107" height="111" viewBox="0 0 107 111" fill="none" xmlns="http://www.w3.org/2000/svg">
<path d="M20.8342 38.5206C21.674 33.0619 17.9297 27.9561 12.4711 27.1163C7.01244 26.2765 1.90657 30.0208 1.06678 35.4794L20.8342 38.5206ZM99.7723 101.594C105.071 100.035 108.103 94.4768 106.544 89.1784C104.986 83.88 99.4275 80.848 94.1291 82.4063L99.7723 101.594ZM1.06678 35.4794C-0.066925 42.8486 -1.02106 60.0762 2.20288 75.8745C3.81194 83.7594 6.64336 92.2277 11.8023 98.9286C17.261 106.019 25.2943 111 35.9506 111V91C32.3408 91 29.866 89.6063 27.6497 86.7277C25.1338 83.4598 23.1234 78.3656 21.799 71.8755C19.156 58.9238 19.9679 44.1514 20.8342 38.5206L1.06678 35.4794ZM35.9506 111C46.2643 111 54.193 106.902 59.7648 100.581C65.0082 94.6328 67.7368 87.2269 69.2896 80.8745C70.8662 74.4248 71.4437 68.1238 71.7925 63.8433C71.9833 61.5012 72.0798 60.1396 72.1989 59.2242C72.2676 58.6962 72.2648 59.0004 72.063 59.6169C71.9797 59.8713 71.6203 60.9678 70.6963 62.1828C69.7127 63.4759 67.1658 66 62.9505 66V46C58.579 46 55.8904 48.6119 54.7774 50.0754C53.7238 51.4607 53.247 52.8098 53.0558 53.3939C52.6381 54.6695 52.4576 55.9405 52.3662 56.6429C52.165 58.1885 52.0115 60.3426 51.8586 62.2192C51.5199 66.3762 51.035 71.3252 49.8616 76.1255C48.6644 81.0231 46.9556 84.8672 44.7615 87.3562C42.8959 89.4727 40.387 91 35.9506 91V111ZM62.9505 66C58.6913 66 56.1158 63.429 55.1032 62.0512C54.1696 60.7809 53.8266 59.6364 53.7449 59.3626C53.5468 58.6979 53.5536 58.3611 53.5998 58.8582C53.6754 59.6729 53.7201 61.0457 53.7737 63.2719C53.8731 67.3971 53.9863 73.4947 54.7054 79.6588C55.404 85.6465 56.7807 92.8102 59.997 98.7379C63.4484 105.099 69.6983 111 79.4506 111V91C79.203 91 78.7029 91.2763 77.576 89.1996C76.2142 86.6898 75.1846 82.6035 74.5707 77.3412C73.9773 72.2553 73.8718 67.1029 73.7679 62.7906C73.72 60.798 73.667 58.6552 73.5141 57.009C73.446 56.2757 73.3059 54.972 72.9112 53.6482C72.7313 53.0447 72.2776 51.6475 71.2189 50.207C70.0811 48.6589 67.366 46 62.9505 46V66ZM79.4506 111C87.0065 111 91.539 107.529 94.4353 105.103C97.0652 102.899 97.8678 102.154 99.7723 101.594L94.1291 82.4063C87.5334 84.3462 83.5859 88.1008 81.5909 89.7723C80.5309 90.6604 80.1922 90.8558 80.039 90.9293C79.9999 90.948 79.9822 90.9537 79.9504 90.9609C79.9133 90.9693 79.7638 91 79.4506 91V111Z" fill="white"/>
<circle cx="29.4505" cy="13" r="13" fill="white"/>
</svg>
