<svg width="203" height="203" viewBox="0 0 203 203" fill="none" xmlns="http://www.w3.org/2000/svg">
<path d="M68.8342 89.5206C69.674 84.0619 65.9297 78.9561 60.4711 78.1163C55.0124 77.2765 49.9066 81.0208 49.0668 86.4794L68.8342 89.5206ZM147.772 152.594C153.071 151.035 156.103 145.477 154.544 140.178C152.986 134.88 147.428 131.848 142.129 133.406L147.772 152.594ZM49.0668 86.4794C47.9331 93.8486 46.9789 111.076 50.2029 126.874C51.8119 134.759 54.6434 143.228 59.8023 149.929C65.261 157.019 73.2943 162 83.9506 162V142C80.3408 142 77.866 140.606 75.6497 137.728C73.1338 134.46 71.1234 129.366 69.799 122.876C67.156 109.924 67.9679 95.1514 68.8342 89.5206L49.0668 86.4794ZM83.9506 162C94.2643 162 102.193 157.902 107.765 151.581C113.008 145.633 115.737 138.227 117.29 131.874C118.866 125.425 119.444 119.124 119.793 114.843C119.983 112.501 120.08 111.14 120.199 110.224C120.268 109.696 120.265 110 120.063 110.617C119.98 110.871 119.62 111.968 118.696 113.183C117.713 114.476 115.166 117 110.951 117V97C106.579 97 103.89 99.6119 102.777 101.075C101.724 102.461 101.247 103.81 101.056 104.394C100.638 105.669 100.458 106.94 100.366 107.643C100.165 109.188 100.011 111.343 99.8586 113.219C99.5199 117.376 99.035 122.325 97.8616 127.125C96.6644 132.023 94.9556 135.867 92.7615 138.356C90.8958 140.473 88.387 142 83.9506 142V162ZM110.951 117C106.691 117 104.116 114.429 103.103 113.051C102.17 111.781 101.827 110.636 101.745 110.363C101.547 109.698 101.554 109.361 101.6 109.858C101.675 110.673 101.72 112.046 101.774 114.272C101.873 118.397 101.986 124.495 102.705 130.659C103.404 136.647 104.781 143.81 107.997 149.738C111.448 156.099 117.698 162 127.451 162V142C127.203 142 126.703 142.276 125.576 140.2C124.214 137.69 123.185 133.603 122.571 128.341C121.977 123.255 121.872 118.103 121.768 113.791C121.72 111.798 121.667 109.655 121.514 108.009C121.446 107.276 121.306 105.972 120.911 104.648C120.731 104.045 120.278 102.648 119.219 101.207C118.081 99.6589 115.366 97 110.951 97V117ZM127.451 162C135.007 162 139.539 158.529 142.435 156.103C145.065 153.899 145.868 153.154 147.772 152.594L142.129 133.406C135.533 135.346 131.586 139.101 129.591 140.772C128.531 141.66 128.192 141.856 128.039 141.929C128 141.948 127.982 141.954 127.95 141.961C127.913 141.969 127.764 142 127.451 142V162Z" fill="white"/>
<circle cx="77.4505" cy="64" r="13" fill="white"/>
</svg>
